<svg xmlns="http://www.w3.org/2000/svg" width="512.202" height="217.283" viewBox="0 0 512.202 217.283">
  <g id="Group_1" data-name="Group 1" transform="translate(-23.344 -39.717)">
    <path id="Path_7243" data-name="Path 7243" d="M-53,8242.079l98.113-13.705,103.59-15.039,97.95-13.312,97.523-16.128,77.75-12.965" transform="translate(88.753 -7997.472)" fill="none" stroke="#c7ced8" stroke-width="6"/>
    <ellipse id="Ellipse_72" data-name="Ellipse 72" cx="12" cy="12.5" rx="12" ry="12.5" transform="translate(23.344 232)" fill="#189add"/>
    <circle id="Ellipse_73" data-name="Ellipse 73" cx="12.5" cy="12.5" r="12.5" transform="translate(123.344 216)" fill="#189add"/>
    <circle id="Ellipse_74" data-name="Ellipse 74" cx="12.5" cy="12.5" r="12.5" transform="translate(223.344 202)" fill="#189add"/>
    <circle id="Ellipse_75" data-name="Ellipse 75" cx="12.5" cy="12.5" r="12.5" transform="translate(322.344 190)" fill="#189add"/>
    <ellipse id="Ellipse_76" data-name="Ellipse 76" cx="12" cy="12.5" rx="12" ry="12.5" transform="translate(419.344 174)" fill="#189add"/>
    <ellipse id="Ellipse_77" data-name="Ellipse 77" cx="12" cy="12.5" rx="12" ry="12.5" transform="translate(501.344 160)" fill="#189add"/>
    <text id="_2014" data-name="2014" transform="translate(36.233 59.215)" fill="#424242" font-size="18" font-family="SegoeUI, Segoe UI" letter-spacing="0.05em"><tspan x="0" y="0">2014</tspan></text>
    <text id="_538.83b_" data-name="$538.83b " transform="translate(23.344 92.869)" fill="#424242" font-size="14" font-family="SegoeUI, Segoe UI" letter-spacing="0.05em"><tspan x="0" y="0">$538.83b </tspan></text>
    <text id="_2015" data-name="2015" transform="translate(120.586 59.482)" fill="#424242" font-size="18" font-family="SegoeUI, Segoe UI" letter-spacing="0.05em"><tspan x="0" y="0">2015</tspan></text>
    <text id="_569.65b_" data-name="$569.65b " transform="translate(103.978 93.135)" fill="#424242" font-size="14" font-family="SegoeUI, Segoe UI" letter-spacing="0.05em"><tspan x="0" y="0">$569.65b </tspan></text>
    <text id="_2016" data-name="2016" transform="translate(213.952 59.029)" fill="#424242" font-size="18" font-family="SegoeUI, Segoe UI" letter-spacing="0.05em"><tspan x="0" y="0">2016</tspan></text>
    <text id="_606.90b_" data-name="$606.90b " transform="translate(199.344 93.683)" fill="#424242" font-size="14" font-family="SegoeUI, Segoe UI" letter-spacing="0.05em"><tspan x="0" y="0">$606.90b </tspan></text>
    <text id="_2017" data-name="2017" transform="translate(310.952 58.717)" fill="#424242" font-size="18" font-family="SegoeUI, Segoe UI" letter-spacing="0.05em"><tspan x="0" y="0">2017</tspan></text>
    <text id="_643.23b_" data-name="$643.23b " transform="translate(296.344 93.371)" fill="#424242" font-size="14" font-family="SegoeUI, Segoe UI" letter-spacing="0.05em"><tspan x="0" y="0">$643.23b </tspan></text>
    <text id="_2018" data-name="2018" transform="translate(397.801 58.828)" fill="#424242" font-size="18" font-family="SegoeUI, Segoe UI" letter-spacing="0.05em"><tspan x="0" y="0">2018</tspan></text>
    <text id="_682.43b_" data-name="$682.43b " transform="translate(383.192 93.481)" fill="#424242" font-size="14" font-family="SegoeUI, Segoe UI" letter-spacing="0.05em"><tspan x="0" y="0">$682.43b </tspan></text>
    <text id="_2019" data-name="2019" transform="translate(484.153 59.094)" fill="#424242" font-size="18" font-family="SegoeUI, Segoe UI" letter-spacing="0.05em"><tspan x="0" y="0">2019</tspan></text>
    <text id="_719.20b_" data-name="$719.20b " transform="translate(469.545 92.748)" fill="#424242" font-size="14" font-family="SegoeUI, Segoe UI" letter-spacing="0.05em"><tspan x="0" y="0">$719.20b </tspan></text>
  </g>
</svg>
