<svg xmlns="http://www.w3.org/2000/svg" width="244.386" height="170.516" viewBox="0 0 244.386 170.516">
  <g id="Group_1" data-name="Group 1" transform="translate(-65.639 -321.219)">
    <path id="cloud" d="M182.832,168.141H62.793c-16.823,0-32.483-5.8-44.1-16.35A56.973,56.973,0,0,1,0,109.044C0,92.156,6.179,77.592,17.88,66.928c8.359-7.63,19.5-13.041,31.938-15.634a7.387,7.387,0,0,0,5.246-4.222A72.137,72.137,0,0,1,74.481,21.214,67.3,67.3,0,0,1,118.193,5.626a70.9,70.9,0,0,1,49.464,19.8c11.419,10.992,19.16,25.523,22.706,42.477a7.387,7.387,0,0,0,5.594,5.719c21.038,4.682,40.429,19.922,40.429,46.5,0,15.418-5.654,28.064-16.35,36.581C210.64,164.181,197.777,168.141,182.832,168.141Z" transform="translate(69.639 319.594)" fill="#fff" stroke="#c7ced8" stroke-width="8"/>
    <g id="refresh" transform="translate(236.937 379.887) rotate(90)">
      <path id="Path_7258" data-name="Path 7258" d="M51.794,2.775S57.427,0,37,0a37,37,0,1,0,37,37" transform="translate(0 17.574)" fill="none" stroke="#189add" stroke-linecap="round" stroke-miterlimit="10" stroke-width="8"/>
      <path id="Path_7259" data-name="Path 7259" d="M0,0,18.5,18.5,0,37" transform="translate(36.995 0)" fill="none" stroke="#189add" stroke-linecap="round" stroke-linejoin="round" stroke-width="8"/>
    </g>
  </g>
</svg>
