<svg xmlns="http://www.w3.org/2000/svg" viewBox="0 0 2500 162" width="2500" height="162">
	<style>
		tspan { white-space:pre }
		.shp0 { fill: #ffffff } 
	</style>
	<path id="Shape 1" class="shp0" d="M-4 -0.74C118.93 46.8 213.11 61.36 232.16 64.5C251.2 67.63 347.31 82.9 491.8 89.29C519.11 90.65 765.27 90.37 799.72 86.68C810.89 86.42 1066.19 68.98 1093.29 65.8C1120.39 62.63 1380.17 37.28 1411.64 34.49C1443.11 31.69 1545.52 19.77 1709.12 16.22C1736.22 16.37 1975.46 22.78 2053.57 33.18C2077.46 36.45 2198.97 43.5 2362.8 89.29C2387.75 96.2 2456.79 118.29 2501.1 150.61C2501.5 154.64 2501.1 163.66 2501.1 163.66L-5.3 162.35C-5.3 162.35 -2.88 -3.42 -4 -0.74Z" />
</svg>